<svg xmlns="http://www.w3.org/2000/svg" version="1.1" xmlns:xlink="http://www.w3.org/1999/xlink" xmlns:svgjs="http://svgjs.dev/svgjs" width="1000" height="1470" viewBox="0 0 1000 1470"><g transform="matrix(1,0,0,1,-1.0105110247608877,0.5951628175832866)"><svg viewBox="0 0 168 247" data-background-color="#ffffff" preserveAspectRatio="xMidYMid meet" height="1470" width="1000" xmlns="http://www.w3.org/2000/svg" xmlns:xlink="http://www.w3.org/1999/xlink"><g id="tight-bounds" transform="matrix(1,0,0,1,0.16976607392609822,-0.09999645173942895)"><svg viewBox="0 0 167.66046474741992 247.2" height="247.2" width="167.66046474741992"><g><svg viewBox="0 0 244.654324839779 360.7203951838267" height="247.2" width="167.66046474741992"><g><svg viewBox="0 0 244.654324839779 360.7203951838267" height="360.7203951838267" width="244.654324839779"><g id="textblocktransform"><svg viewBox="0 0 244.654324839779 360.7203951838267" height="360.7203951838267" width="244.654324839779" id="textblock"><g><svg viewBox="0 0 244.654324839779 245.672304" height="245.672304" width="244.654324839779"><g transform="matrix(1,0,0,1,0,0)"><svg width="244.654324839779" viewBox="2.700000047683716 -35.599998474121094 36.04999923706055 36.19999694824219" height="245.672304" data-palette-color="#520dc5"><path d="M27.7 0.6L27.7 0.6Q24.55 0.6 22.05-0.78 19.55-2.15 18.1-4.6 16.65-7.05 16.65-10.15L16.65-10.15 16.65-25.45Q16.65-26.25 16.25-26.9 15.85-27.55 15.2-27.95 14.55-28.35 13.75-28.35L13.75-28.35Q12.95-28.35 12.3-27.95 11.65-27.55 11.28-26.9 10.9-26.25 10.9-25.45L10.9-25.45 10.9 0 2.7 0 2.7-24.85Q2.7-28 4.13-30.4 5.55-32.8 8.08-34.2 10.6-35.6 13.75-35.6L13.75-35.6Q16.95-35.6 19.45-34.2 21.95-32.8 23.4-30.4 24.85-28 24.85-24.85L24.85-24.85 24.85-9.55Q24.85-8.75 25.25-8.08 25.65-7.4 26.28-7.03 26.9-6.65 27.65-6.65L27.65-6.65Q28.45-6.65 29.13-7.03 29.8-7.4 30.2-8.08 30.6-8.75 30.6-9.55L30.6-9.55 30.6-35 38.75-35 38.75-10.15Q38.75-7.05 37.3-4.6 35.85-2.15 33.35-0.78 30.85 0.6 27.7 0.6Z" opacity="1" transform="matrix(1,0,0,1,0,0)" fill="#520dc5" class="wordmark-text-0" data-fill-palette-color="primary" id="text-0"></path></svg></g></svg></g><g transform="matrix(1,0,0,1,0,303.669638839104)"><svg viewBox="0 0 244.654324839779 57.05075634472272" height="57.05075634472272" width="244.654324839779"><g transform="matrix(1,0,0,1,0,0)"><svg width="244.654324839779" viewBox="2.700000047683716 -37.70000076293945 208.1800079345703 48.55000305175781" height="57.05075634472272" data-palette-color="#96a2fb"><path d="M16.45-26.25L16.45-26.25Q12.3-26.25 9.2-24.55 6.1-22.85 4.4-19.7 2.7-16.55 2.7-12.35L2.7-12.35 2.7 10.85 10.45 10.85 10.45-2.8 10.6-2.8Q11.35-1.75 12.48-0.98 13.6-0.2 14.98 0.2 16.35 0.6 17.9 0.6L17.9 0.6Q21.55 0.6 24.3-1.05 27.05-2.7 28.63-5.6 30.2-8.5 30.2-12.4L30.2-12.4Q30.2-15.4 29.25-17.95 28.3-20.5 26.53-22.38 24.75-24.25 22.23-25.25 19.7-26.25 16.45-26.25ZM16.45-19.55L16.45-19.55Q18.25-19.55 19.55-18.68 20.85-17.8 21.58-16.28 22.3-14.75 22.3-12.85L22.3-12.85Q22.3-10.95 21.58-9.45 20.85-7.95 19.55-7.08 18.25-6.2 16.45-6.2L16.45-6.2Q14.65-6.2 13.33-7.08 12-7.95 11.3-9.45 10.6-10.95 10.6-12.85L10.6-12.85Q10.6-14.75 11.3-16.28 12-17.8 13.33-18.68 14.65-19.55 16.45-19.55ZM47.5 0.6L47.5 0.6Q43.55 0.6 40.4-1.15 37.25-2.9 35.42-5.95 33.6-9 33.6-12.8L33.6-12.8Q33.6-16.65 35.42-19.68 37.25-22.7 40.4-24.48 43.55-26.25 47.5-26.25L47.5-26.25Q51.45-26.25 54.57-24.48 57.7-22.7 59.52-19.68 61.35-16.65 61.35-12.8L61.35-12.8Q61.35-9 59.52-5.95 57.7-2.9 54.55-1.15 51.4 0.6 47.5 0.6ZM47.5-6.15L47.5-6.15Q49.35-6.15 50.7-7.05 52.05-7.95 52.8-9.45 53.55-10.95 53.55-12.85L53.55-12.85Q53.55-14.7 52.8-16.2 52.05-17.7 50.7-18.6 49.35-19.5 47.5-19.5L47.5-19.5Q45.65-19.5 44.27-18.6 42.9-17.7 42.15-16.2 41.4-14.7 41.4-12.85L41.4-12.85Q41.4-10.95 42.15-9.45 42.9-7.95 44.27-7.05 45.65-6.15 47.5-6.15ZM73.5 0L65.75 0 65.75-18.1Q65.75-21.6 67.75-23.6 69.75-25.6 73.3-25.6L73.3-25.6 80.75-25.6 80.75-19.3 75.2-19.3Q74.5-19.3 74-18.82 73.5-18.35 73.5-17.6L73.5-17.6 73.5 0ZM101.89 0L94.59 0Q91.04 0 89.04-2.02 87.04-4.05 87.04-7.5L87.04-7.5 87.04-31.9 94.84-31.9 94.84-7.95Q94.84-7.35 95.27-6.93 95.69-6.5 96.29-6.5L96.29-6.5 101.89-6.5 101.89 0ZM101.89-19.3L82.84-19.3 82.84-25.65 101.89-25.65 101.89-19.3ZM116.34 0L108.59 0 108.59-19.3 104.29-19.3 104.29-25.65 108.59-25.65 108.59-29Q108.59-32.5 110.59-34.5 112.59-36.5 116.09-36.5L116.09-36.5 123.89-36.5 123.89-30.15 117.79-30.15Q117.19-30.15 116.77-29.73 116.34-29.3 116.34-28.7L116.34-28.7 116.34-25.65 122.79-25.65 122.79-19.3 116.34-19.3 116.34 0ZM138.89 0.6L138.89 0.6Q134.94 0.6 131.79-1.15 128.64-2.9 126.81-5.95 124.99-9 124.99-12.8L124.99-12.8Q124.99-16.65 126.81-19.68 128.64-22.7 131.79-24.48 134.94-26.25 138.89-26.25L138.89-26.25Q142.84-26.25 145.96-24.48 149.09-22.7 150.91-19.68 152.74-16.65 152.74-12.8L152.74-12.8Q152.74-9 150.91-5.95 149.09-2.9 145.94-1.15 142.79 0.6 138.89 0.6ZM138.89-6.15L138.89-6.15Q140.74-6.15 142.09-7.05 143.44-7.95 144.19-9.45 144.94-10.95 144.94-12.85L144.94-12.85Q144.94-14.7 144.19-16.2 143.44-17.7 142.09-18.6 140.74-19.5 138.89-19.5L138.89-19.5Q137.04-19.5 135.66-18.6 134.29-17.7 133.54-16.2 132.79-14.7 132.79-12.85L132.79-12.85Q132.79-10.95 133.54-9.45 134.29-7.95 135.66-7.05 137.04-6.15 138.89-6.15ZM165.09 0L157.34 0 157.34-36.5 165.09-36.5 165.09 0ZM178.63 0L170.83 0 170.83-25.65 178.63-25.65 178.63 0ZM174.73-28.55L174.73-28.55Q172.88-28.55 171.53-29.9 170.18-31.25 170.18-33.1L170.18-33.1Q170.18-34.95 171.53-36.33 172.88-37.7 174.73-37.7L174.73-37.7Q176.58-37.7 177.93-36.33 179.28-34.95 179.28-33.1L179.28-33.1Q179.28-31.25 177.93-29.9 176.58-28.55 174.73-28.55ZM197.03 0.6L197.03 0.6Q193.08 0.6 189.93-1.15 186.78-2.9 184.96-5.95 183.13-9 183.13-12.8L183.13-12.8Q183.13-16.65 184.96-19.68 186.78-22.7 189.93-24.48 193.08-26.25 197.03-26.25L197.03-26.25Q200.98-26.25 204.11-24.48 207.23-22.7 209.06-19.68 210.88-16.65 210.88-12.8L210.88-12.8Q210.88-9 209.06-5.95 207.23-2.9 204.08-1.15 200.93 0.6 197.03 0.6ZM197.03-6.15L197.03-6.15Q198.88-6.15 200.23-7.05 201.58-7.95 202.33-9.45 203.08-10.95 203.08-12.85L203.08-12.85Q203.08-14.7 202.33-16.2 201.58-17.7 200.23-18.6 198.88-19.5 197.03-19.5L197.03-19.5Q195.18-19.5 193.81-18.6 192.43-17.7 191.68-16.2 190.93-14.7 190.93-12.85L190.93-12.85Q190.93-10.95 191.68-9.45 192.43-7.95 193.81-7.05 195.18-6.15 197.03-6.15Z" opacity="1" transform="matrix(1,0,0,1,0,0)" fill="#96a2fb" class="slogan-text-1" data-fill-palette-color="secondary" id="text-1"></path></svg></g></svg></g></svg></g></svg></g><g></g></svg></g><defs></defs></svg><rect width="167.66046474741992" height="247.2" fill="none" stroke="none" visibility="hidden"></rect></g></svg></g></svg>